# xmcd CD database file
#
# Track frame offsets:
#	150
#	25165
#	41913
#	66610
#	86058
#	105095
#	124688
#	146735
#	164453
#	181508
#	198858
#	221625
#	248740
#
# Disc length: 3617 seconds
#
# Revision: 0
# Processed by: cddbd v1.5.1PL0 Copyright (c) Steve Scherf et al.
# Submitted via: CDex 1.50beta8
#
DISCID=b40e1f0d
DTITLE=Various Artist - Jポップ&ロック・ヒストリー (日本コロンビア) Vol.2
DYEAR=1999
DGENRE=JPop
TTITLE0=ラウドネス／SPEED (1982)
TTITLE1=ザ・ルースターズ／ROSIE (1980)
TTITLE2=レッド・ウォーリアーズ／バラとワイン (Wine&Roses) (1987)
TTITLE3=MAKE-UP／SALVATION ARMY (1983)
TTITLE4=GRAND PRIX／Tears and Soul (1988)
TTITLE5=近田春夫&ビブラトーンズ／真夜中のピアニスト (1981)
TTITLE6=センチメンタル・シティ・ロマンス／歌さえあれば (1979)
TTITLE7=喜納昌吉&チャンブルーズ／ハイサイおじさん (1997)
TTITLE8=ジューシイ・フルーツ／ジェニーはご機嫌ななめ (1980)
TTITLE9=ジッタリン・ジン／エヴリデイ (1989)
TTITLE10=カーネーション／Edo Eiver (1994)
TTITLE11=ザ・コレクターズ／世界を止めて (1993)
TTITLE12=ピチカート・ファイブ／東京は夜の七時 (1993)
EXTD=YEAR: 1999
EXTT0=
EXTT1=
EXTT2=
EXTT3=
EXTT4=
EXTT5=
EXTT6=
EXTT7=
EXTT8=
EXTT9=
EXTT10=
EXTT11=
EXTT12=
PLAYORDER=
